<svg width="82" height="87" viewBox="0 0 82 87" fill="none" xmlns="http://www.w3.org/2000/svg">
    <path d="M41 4.5C61.1584 4.5 77.5 20.8416 77.5 41C77.5 49.64 74.5032 57.5674 69.4893 63.8184C68.1433 65.4963 66.6524 67.0534 65.0352 68.4697C64.1335 69.2594 63.5729 70.2657 63.2715 70.8506C62.9084 71.5552 62.5812 72.344 62.291 73.1182C61.7078 74.6742 61.1473 76.5181 60.6582 78.2568C60.3288 79.4278 60.0221 80.5926 59.75 81.6436C57.9632 81.1358 56.0016 80.4985 53.7412 79.8164C49.9681 78.6778 45.5483 77.5 41 77.5C20.8416 77.5 4.5 61.1584 4.5 41C4.5 20.8416 20.8416 4.5 41 4.5Z" stroke="url(#paint0_linear_4_35)" stroke-width="9"/>
    <path d="M20 33.1913C20 32.4307 20.8155 31.9485 21.4819 32.315L39.4819 42.215C39.8015 42.3908 40 42.7266 40 43.0913V62.8087C40 63.5693 39.1845 64.0515 38.5181 63.6849L20.5181 53.7849C20.1985 53.6092 20 53.2734 20 52.9087V33.1913Z" fill="#4589F7"/>
    <path d="M42 43.084C42 42.7232 42.1944 42.3903 42.5087 42.213L60.0087 32.3413C60.6753 31.9652 61.5 32.4469 61.5 33.2122V52.916C61.5 53.2768 61.3056 53.6097 60.9913 53.7869L43.4913 63.6587C42.8247 64.0348 42 63.5531 42 62.7878V43.084Z" fill="#3A62E4"/>
    <path d="M40.5473 19.2263C40.8319 19.084 41.1672 19.0857 41.4504 19.2307L59.8405 28.65C60.5507 29.0138 60.5698 30.0218 59.8739 30.4122L41.4834 40.7288C41.1827 40.8975 40.8163 40.8994 40.5138 40.7338L21.6752 30.4174C20.9674 30.0298 20.9866 29.0067 21.7083 28.6458L40.5473 19.2263Z" fill="#52A9F9"/>
    <defs>
    <linearGradient id="paint0_linear_4_35" x1="15.5" y1="7" x2="64.5" y2="72.5" gradientUnits="userSpaceOnUse">
    <stop stop-color="#479DFC"/>
    <stop offset="1" stop-color="#8C58F3"/>
    </linearGradient>
    </defs>
    </svg>
    